<svg id="Layer_1" data-name="Layer 1" xmlns="http://www.w3.org/2000/svg" xmlns:xlink="http://www.w3.org/1999/xlink" viewBox="0 0 582.6 300"><defs><style>.cls-1,.cls-4{fill:none;}.cls-2,.cls-6{fill:#fff;}.cls-2{opacity:0.7;}.cls-3{fill:#00a29b;}.cls-4{stroke:#000;stroke-miterlimit:10;}.cls-5{clip-path:url(#clip-path);}.cls-6{font-size:14px;font-family:Roboto-Regular, Roboto;}.cls-7{letter-spacing:-0.01em;}.cls-8{letter-spacing:-0.01em;}.cls-9{letter-spacing:-0.01em;}.cls-10,.cls-15{font-size:12px;font-family:MinionPro-Regular, Minion Pro;}.cls-10,.cls-32{letter-spacing:0.01em;}.cls-11{letter-spacing:0em;}.cls-12{letter-spacing:0em;}.cls-13{letter-spacing:0em;}.cls-14{letter-spacing:0em;}.cls-16{letter-spacing:0.01em;}.cls-17{letter-spacing:-0.01em;}.cls-18{letter-spacing:0em;}.cls-19{letter-spacing:0em;}.cls-20{letter-spacing:0em;}.cls-21{letter-spacing:-0.02em;}.cls-22{letter-spacing:-0.01em;}.cls-23{letter-spacing:-0.01em;}.cls-24{letter-spacing:-0.01em;}.cls-25{letter-spacing:-0.02em;}.cls-26{letter-spacing:-0.01em;}.cls-27{letter-spacing:0.01em;}.cls-28{letter-spacing:0em;}.cls-29{letter-spacing:-0.04em;}.cls-30{letter-spacing:0.01em;}.cls-31{letter-spacing:-0.01em;}.cls-33{letter-spacing:0em;}.cls-34{letter-spacing:-0.01em;}.cls-35{letter-spacing:-0.01em;}.cls-36{letter-spacing:-0.01em;}.cls-37{letter-spacing:-0.03em;}.cls-38{letter-spacing:0em;}.cls-39{letter-spacing:0.01em;}.cls-40{letter-spacing:0em;}.cls-41{letter-spacing:-0.01em;}.cls-42{letter-spacing:-0.01em;}.cls-43{letter-spacing:0.01em;}.cls-44{letter-spacing:-0.01em;}.cls-45{letter-spacing:0em;}.cls-46{letter-spacing:0.01em;}.cls-47{letter-spacing:0em;}.cls-48{letter-spacing:0em;}.cls-49{letter-spacing:0em;}.cls-50{letter-spacing:0.01em;}.cls-51{letter-spacing:-0.01em;}.cls-52{letter-spacing:-0.02em;}.cls-53{letter-spacing:-0.01em;}.cls-54{letter-spacing:-0.01em;}.cls-55{letter-spacing:0.01em;}.cls-56{letter-spacing:-0.02em;}.cls-57{letter-spacing:-0.03em;}.cls-58{letter-spacing:0em;}.cls-59{letter-spacing:-0.02em;}.cls-60{letter-spacing:-0.01em;}.cls-61{letter-spacing:-0.01em;}.cls-62{letter-spacing:0.01em;}.cls-63{letter-spacing:0.01em;}.cls-64{letter-spacing:0em;}.cls-65{letter-spacing:-0.01em;}</style><clipPath id="clip-path" transform="translate(-6.2 -84)"><rect class="cls-1" x="-7" width="595.28" height="841.89"/></clipPath></defs><title>table_4_updated_again</title><polygon class="cls-2" points="0 0 0 0 0 300 581.8 300 581.8 0 0 0"/><path class="cls-3" d="M6.7,121.28H169.4V84.5H6.7Zm162.7,0H350.6V84.5H169.4Zm181.2,0h120V84.5h-120Zm120,0H588.28V84.5H470.6Z" transform="translate(-6.2 -84)"/><line class="cls-4" y1="0.5" x2="163.2" y2="0.5"/><line class="cls-4" x1="0.5" y1="36.78" x2="0.5" y2="1"/><line class="cls-4" x1="163.2" y1="0.5" x2="344.4" y2="0.5"/><line class="cls-4" x1="163.2" y1="36.78" x2="163.2" y2="1"/><line class="cls-4" x1="344.4" y1="0.5" x2="464.4" y2="0.5"/><line class="cls-4" x1="344.4" y1="36.78" x2="344.4" y2="1"/><g class="cls-5"><line class="cls-4" x1="464.4" y1="0.5" x2="582.6" y2="0.5"/></g><line class="cls-4" x1="464.4" y1="36.78" x2="464.4" y2="1"/><g class="cls-5"><line class="cls-4" x1="582.1" y1="36.78" x2="582.1" y2="1"/></g><line class="cls-4" y1="37.28" x2="163.2" y2="37.28"/><line class="cls-4" x1="163.2" y1="37.28" x2="344.4" y2="37.28"/><line class="cls-4" x1="163.2" y1="73.55" x2="163.2" y2="37.78"/><line class="cls-4" x1="344.4" y1="37.28" x2="464.4" y2="37.28"/><line class="cls-4" x1="344.4" y1="73.55" x2="344.4" y2="37.78"/><g class="cls-5"><line class="cls-4" x1="464.4" y1="37.28" x2="582.6" y2="37.28"/></g><line class="cls-4" x1="464.4" y1="73.55" x2="464.4" y2="37.78"/><line class="cls-4" y1="74.05" x2="163.2" y2="74.05"/><line class="cls-4" x1="163.2" y1="74.05" x2="344.4" y2="74.05"/><line class="cls-4" x1="163.2" y1="119.07" x2="163.2" y2="74.55"/><line class="cls-4" x1="344.4" y1="74.05" x2="464.4" y2="74.05"/><line class="cls-4" x1="344.4" y1="119.07" x2="344.4" y2="74.55"/><g class="cls-5"><line class="cls-4" x1="464.4" y1="74.05" x2="582.6" y2="74.05"/></g><line class="cls-4" x1="464.4" y1="119.07" x2="464.4" y2="74.55"/><line class="cls-4" y1="119.57" x2="163.2" y2="119.57"/><line class="cls-4" x1="163.2" y1="119.57" x2="344.4" y2="119.57"/><line class="cls-4" x1="163.2" y1="179" x2="163.2" y2="120.07"/><line class="cls-4" x1="344.4" y1="119.57" x2="464.4" y2="119.57"/><line class="cls-4" x1="344.4" y1="179" x2="344.4" y2="120.07"/><g class="cls-5"><line class="cls-4" x1="464.4" y1="119.57" x2="582.6" y2="119.57"/></g><line class="cls-4" x1="464.4" y1="179" x2="464.4" y2="120.07"/><line class="cls-4" y1="179.5" x2="163.2" y2="179.5"/><line class="cls-4" x1="163.2" y1="179.5" x2="344.4" y2="179.5"/><line class="cls-4" x1="163.2" y1="224.52" x2="163.2" y2="180"/><line class="cls-4" x1="344.4" y1="179.5" x2="464.4" y2="179.5"/><line class="cls-4" x1="344.4" y1="224.52" x2="344.4" y2="180"/><g class="cls-5"><line class="cls-4" x1="464.4" y1="179.5" x2="582.6" y2="179.5"/></g><line class="cls-4" x1="464.4" y1="224.52" x2="464.4" y2="180"/><line class="cls-4" y1="225.02" x2="163.2" y2="225.02"/><line class="cls-4" x1="163.2" y1="225.02" x2="344.4" y2="225.02"/><line class="cls-4" x1="163.2" y1="261.3" x2="163.2" y2="225.52"/><line class="cls-4" x1="344.4" y1="225.02" x2="464.4" y2="225.02"/><line class="cls-4" x1="344.4" y1="261.3" x2="344.4" y2="225.52"/><g class="cls-5"><line class="cls-4" x1="464.4" y1="225.02" x2="582.6" y2="225.02"/></g><line class="cls-4" x1="464.4" y1="261.3" x2="464.4" y2="225.52"/><line class="cls-4" y1="261.8" x2="163.2" y2="261.8"/><line class="cls-4" x1="163.2" y1="261.8" x2="344.4" y2="261.8"/><line class="cls-4" x1="163.2" y1="298.07" x2="163.2" y2="262.3"/><line class="cls-4" x1="344.4" y1="261.8" x2="464.4" y2="261.8"/><line class="cls-4" x1="344.4" y1="298.07" x2="344.4" y2="262.3"/><g class="cls-5"><line class="cls-4" x1="464.4" y1="261.8" x2="582.6" y2="261.8"/></g><line class="cls-4" x1="464.4" y1="298.07" x2="464.4" y2="262.3"/><line class="cls-4" x1="0.5" y1="73.55" x2="0.5" y2="37.78"/><g class="cls-5"><line class="cls-4" x1="582.1" y1="73.55" x2="582.1" y2="37.78"/></g><line class="cls-4" x1="0.5" y1="119.07" x2="0.5" y2="74.55"/><g class="cls-5"><line class="cls-4" x1="582.1" y1="119.07" x2="582.1" y2="74.55"/></g><line class="cls-4" x1="0.5" y1="179" x2="0.5" y2="120.07"/><g class="cls-5"><line class="cls-4" x1="582.1" y1="179" x2="582.1" y2="120.07"/></g><line class="cls-4" x1="0.5" y1="224.52" x2="0.5" y2="180"/><g class="cls-5"><line class="cls-4" x1="582.1" y1="224.52" x2="582.1" y2="180"/></g><line class="cls-4" x1="0.5" y1="261.3" x2="0.5" y2="225.52"/><g class="cls-5"><line class="cls-4" x1="582.1" y1="261.3" x2="582.1" y2="225.52"/></g><line class="cls-4" x1="0.5" y1="298.07" x2="0.5" y2="262.3"/><g class="cls-5"><line class="cls-4" x1="582.1" y1="298.07" x2="582.1" y2="262.3"/></g><line class="cls-4" y1="298.57" x2="163.2" y2="298.57"/><line class="cls-4" x1="163.2" y1="298.57" x2="344.4" y2="298.57"/><line class="cls-4" x1="344.4" y1="298.57" x2="464.4" y2="298.57"/><g class="cls-5"><line class="cls-4" x1="464.4" y1="298.57" x2="582.6" y2="298.57"/></g><text class="cls-6" transform="translate(66.13 15)">Time</text><text class="cls-6" transform="translate(236.41 15)">Exam</text><text class="cls-6" transform="translate(355.24 15)">No. of E<tspan class="cls-7" x="49.38" y="0">C</tspan><tspan class="cls-8" x="58.31" y="0">T</tspan><tspan x="66.57" y="0">S per </tspan></text><text class="cls-6" transform="translate(351.13 31.8)">test (120 in <tspan class="cls-9" x="73.67" y="0">t</tspan><tspan x="78.05" y="0">otal)</tspan></text><text class="cls-6" transform="translate(484.55 15)">Assessment</text><path d="M27,134v-.34c.76-.1.86-.19.71-.66s-.4-1.12-.66-1.85H24.47c-.19.54-.37,1-.53,1.55-.26.76-.16.88.74,1V134h-2.6v-.34c.76-.11.92-.18,1.34-1.24l2.48-6.3.37-.11c.74,2.06,1.55,4.34,2.31,6.43.38,1,.54,1.14,1.32,1.21V134Zm-1.18-6.42h0l-1.13,3.06h2.21Zm6.6,6.4a1.22,1.22,0,0,1-.5.16c-.76,0-1.18-.48-1.18-1.43v-3.49h-.83l0-.12.32-.35h.55v-.88l.78-.79.17,0v1.64H33a.34.34,0,0,1-.07.47H31.67v3.08c0,1,.4,1.15.7,1.15a1.71,1.71,0,0,0,.74-.2l.11.31Zm6.38,0a1.22,1.22,0,0,1-.5.16c-.76,0-1.18-.48-1.18-1.43v-3.49h-.83l0-.12.32-.35h.55v-.88l.78-.79.17,0v1.64h1.36a.34.34,0,0,1-.07.47H38.05v3.08c0,1,.4,1.15.7,1.15a1.71,1.71,0,0,0,.74-.2l.11.31Zm4.6,0v-.31c.7-.07.79-.14.79-.92v-2c0-1-.37-1.48-1.18-1.48a1.69,1.69,0,0,0-1.25.61v2.85c0,.77.06.85.77.92V134H40v-.31c.72-.06.83-.13.83-.92V127c0-.76,0-.82-.82-.89v-.28a13.13,13.13,0,0,0,1.76-.42v4a2.62,2.62,0,0,1,1.72-.88c1,0,1.66.61,1.66,2.05v2.1c0,.79.08.86.79.92V134Zm7.48-1a2.72,2.72,0,0,1-2,1.16,2.37,2.37,0,0,1-2.34-2.55,3.09,3.09,0,0,1,.79-2.1,2.44,2.44,0,0,1,1.76-.88,1.86,1.86,0,0,1,1.8,1.82c0,.24-.06.34-.28.38s-1.7.16-3.13.2c0,1.63.95,2.3,1.79,2.3a2,2,0,0,0,1.37-.6Zm-3.29-2.45c.67,0,1.33,0,2,0,.22,0,.29-.07.29-.24a1.1,1.1,0,0,0-1.06-1.2C48.28,129.06,47.75,129.56,47.57,130.53Zm9.17-1.8a1.26,1.26,0,0,1,.49-.12,2.44,2.44,0,0,1,2.36,2.52,3,3,0,0,1-3,3,4.19,4.19,0,0,1-1.76-.43V127c0-.74,0-.82-.79-.89v-.28a9.72,9.72,0,0,0,1.74-.42v3.69Zm-1,3.87a1,1,0,0,0,.07.41,1.13,1.13,0,0,0,1.07.67c1,0,1.63-.85,1.63-2.24a1.92,1.92,0,0,0-1.83-2.16,2,2,0,0,0-.94.23Zm9.12.37a2.72,2.72,0,0,1-2,1.16,2.37,2.37,0,0,1-2.34-2.55,3.09,3.09,0,0,1,.79-2.1,2.44,2.44,0,0,1,1.76-.88,1.86,1.86,0,0,1,1.8,1.82c0,.24-.06.34-.28.38s-1.7.16-3.13.2c0,1.63.95,2.3,1.79,2.3a2,2,0,0,0,1.37-.6Zm-3.29-2.45c.67,0,1.33,0,2,0,.22,0,.29-.07.29-.24a1.1,1.1,0,0,0-1.06-1.2C62.3,129.06,61.78,129.56,61.6,130.53Zm9.26-1.69a1.89,1.89,0,0,1-.54.61l-.68,0a1.61,1.61,0,0,1,.36,1.07,2,2,0,0,1-2.1,1.92,5,5,0,0,1-.61-.06.75.75,0,0,0-.36.49c0,.24.22.47.76.47h1.26c.74,0,1.73.24,1.73,1.42s-1.4,2.37-3,2.37c-1.33,0-2.06-.78-2.07-1.46a.93.93,0,0,1,.29-.67,11.47,11.47,0,0,1,1-.84,1.6,1.6,0,0,1-.89-.66.9.9,0,0,1-.13-.5,2.58,2.58,0,0,0,1.06-.73,1.73,1.73,0,0,1-1.06-1.61,2.05,2.05,0,0,1,2.15-2,2.39,2.39,0,0,1,1.15.3,14,14,0,0,0,1.63-.17Zm-3.77,5.55a1.3,1.3,0,0,0-.55.94c0,.65.7,1.14,1.58,1.14,1.14,0,1.73-.59,1.73-1.33a.87.87,0,0,0-.55-.85,3.06,3.06,0,0,0-1.15-.16A1.44,1.44,0,0,0,67.09,134.39Zm-.2-4c0,.94.46,1.61,1.13,1.61s1-.48,1-1.43S68.57,129,67.88,129C67.35,129,66.89,129.48,66.89,130.41ZM71.3,134v-.31c.76-.07.84-.14.84-1v-2.47c0-.74,0-.79-.76-.91v-.29a7.57,7.57,0,0,0,1.7-.47v4.14c0,.82.08.89.85,1V134Zm.64-7a.62.62,0,0,1,.61-.62.6.6,0,0,1,.6.62.61.61,0,0,1-.61.61A.63.63,0,0,1,71.94,127Zm6,7v-.31c.71-.07.79-.17.79-1v-2c0-.83-.29-1.37-1.09-1.37a2.15,2.15,0,0,0-1.31.61v2.82c0,.82.07.86.78.94V134h-2.6v-.31c.82-.08.88-.14.88-.94v-2.48c0-.77-.07-.8-.72-.92v-.28a7.21,7.21,0,0,0,1.67-.49v1c.24-.18.5-.36.8-.56a1.84,1.84,0,0,1,1-.36c.95,0,1.55.66,1.55,1.82v2.31c0,.82.06.86.76.94V134Zm6.56,0v-.31c.71-.07.79-.17.79-1v-2c0-.83-.29-1.37-1.09-1.37a2.15,2.15,0,0,0-1.31.61v2.82c0,.82.07.86.78.94V134H81v-.31c.82-.08.88-.14.88-.94v-2.48c0-.77-.07-.8-.72-.92v-.28a7.21,7.21,0,0,0,1.67-.49v1c.24-.18.5-.36.8-.56a1.84,1.84,0,0,1,1-.36c.95,0,1.55.66,1.55,1.82v2.31c0,.82.06.86.76.94V134Zm3.17,0v-.31c.76-.07.84-.14.84-1v-2.47c0-.74,0-.79-.76-.91v-.29a7.57,7.57,0,0,0,1.7-.47v4.14c0,.82.08.89.85,1V134Zm.64-7a.62.62,0,0,1,.61-.62.6.6,0,0,1,.6.62.61.61,0,0,1-.61.61A.63.63,0,0,1,88.28,127Zm6,7v-.31c.71-.07.79-.17.79-1v-2c0-.83-.29-1.37-1.09-1.37a2.15,2.15,0,0,0-1.31.61v2.82c0,.82.07.86.78.94V134h-2.6v-.31c.82-.08.88-.14.88-.94v-2.48c0-.77-.07-.8-.72-.92v-.28a7.21,7.21,0,0,0,1.67-.49v1c.24-.18.5-.36.8-.56a1.84,1.84,0,0,1,1-.36c.95,0,1.55.66,1.55,1.82v2.31c0,.82.06.86.76.94V134Zm8.3-5.16a1.89,1.89,0,0,1-.54.61l-.68,0a1.61,1.61,0,0,1,.36,1.07,2,2,0,0,1-2.1,1.92,5,5,0,0,1-.61-.06.75.75,0,0,0-.36.49c0,.24.22.47.76.47h1.26c.74,0,1.73.24,1.73,1.42s-1.4,2.37-3,2.37c-1.33,0-2.06-.78-2.07-1.46a.93.93,0,0,1,.29-.67,11.47,11.47,0,0,1,1-.84,1.6,1.6,0,0,1-.89-.66.9.9,0,0,1-.13-.5,2.58,2.58,0,0,0,1.06-.73,1.73,1.73,0,0,1-1.06-1.61,2.05,2.05,0,0,1,2.15-2,2.39,2.39,0,0,1,1.15.3,14,14,0,0,0,1.63-.17Zm-3.77,5.55a1.3,1.3,0,0,0-.55.94c0,.65.7,1.14,1.58,1.14,1.14,0,1.73-.59,1.73-1.33a.87.87,0,0,0-.55-.85,3.06,3.06,0,0,0-1.15-.16A1.44,1.44,0,0,0,98.79,134.39Zm-.2-4c0,.94.46,1.61,1.13,1.61s1-.48,1-1.43-.44-1.62-1.13-1.62C99.06,129,98.59,129.48,98.59,130.41Zm12.37.88a2.67,2.67,0,0,1-2.6,2.85,2.6,2.6,0,0,1-2.63-2.65,2.73,2.73,0,0,1,2.63-2.88A2.6,2.6,0,0,1,111,131.29Zm-4.11-.18c0,1.51.66,2.64,1.64,2.64.74,0,1.36-.55,1.36-2.19,0-1.4-.56-2.54-1.61-2.54C107.49,129,106.85,129.75,106.85,131.11Zm5.63-2.35v-.26a3.37,3.37,0,0,1,.13-1,2.89,2.89,0,0,1,.92-1.4,2.44,2.44,0,0,1,1.32-.65,1.3,1.3,0,0,1,.95.41.39.39,0,0,1,.06.42.69.69,0,0,1-.23.29.21.21,0,0,1-.32,0,1.5,1.5,0,0,0-1-.44.69.69,0,0,0-.64.36,3.67,3.67,0,0,0-.28,1.82v.48h1.42a.42.42,0,0,1-.12.47h-1.3v3.45c0,.89.08.92,1,1v.3h-2.83v-.31c.77-.07.85-.13.85-.92v-3.54h-.84l0-.12.32-.35ZM120.3,134a1.22,1.22,0,0,1-.5.16c-.76,0-1.18-.48-1.18-1.43v-3.49h-.83l0-.12.32-.35h.55v-.88l.78-.79.17,0v1.64h1.36a.34.34,0,0,1-.07.47h-1.28v3.08c0,1,.4,1.15.7,1.15a1.71,1.71,0,0,0,.74-.2l.11.31Zm4.59,0v-.31c.7-.07.79-.14.79-.92v-2c0-1-.37-1.48-1.18-1.48a1.69,1.69,0,0,0-1.25.61v2.85c0,.77.06.85.77.92V134h-2.54v-.31c.72-.06.83-.13.83-.92V127c0-.76,0-.82-.82-.89v-.28a13.13,13.13,0,0,0,1.76-.42v4a2.62,2.62,0,0,1,1.72-.88c1,0,1.66.61,1.66,2.05v2.1c0,.79.08.86.79.92V134Zm7.48-1a2.72,2.72,0,0,1-2,1.16,2.37,2.37,0,0,1-2.34-2.55,3.09,3.09,0,0,1,.79-2.1,2.44,2.44,0,0,1,1.76-.88,1.86,1.86,0,0,1,1.8,1.82c0,.24-.06.34-.28.38s-1.7.16-3.13.2c0,1.63.95,2.3,1.79,2.3a2,2,0,0,0,1.37-.6Zm-3.29-2.45c.67,0,1.33,0,2,0,.22,0,.29-.07.29-.24a1.1,1.1,0,0,0-1.06-1.2C129.79,129.06,129.26,129.56,129.08,130.53Zm10,3.47v-.31c.67-.06.76-.13.76-.89v-2.94c0-.54,0-.64-.61-.64h-1.64v3.57c0,.74.08.82.84.89V134h-2.63v-.31c.74-.08.85-.14.85-.89v-3.57h-.86l-.06-.13.34-.34h.59v-.29a2.9,2.9,0,0,1,.13-.92,2.87,2.87,0,0,1,1-1.43,3,3,0,0,1,1.49-.66,1.6,1.6,0,0,1,1.27.58.45.45,0,0,1,.06.43.9.9,0,0,1-.26.3c-.14.08-.25.08-.35,0a1.68,1.68,0,0,0-1.25-.7.88.88,0,0,0-.74.42,3.36,3.36,0,0,0-.4,1.88v.41h.95a11.81,11.81,0,0,0,2.25-.16v4.2c0,.76.07.82.84.89V134Zm5-4.11c.36-.6.88-1.27,1.45-1.27a.62.62,0,0,1,.31,1.19.28.28,0,0,1-.32,0,.64.64,0,0,0-.5-.25c-.31,0-.7.36-1,1v2.19c0,.79.06.86,1,.94V134h-2.76v-.31c.74-.07.83-.14.83-.94v-2.48c0-.79-.06-.84-.74-.94v-.26a6.78,6.78,0,0,0,1.69-.49v1.31Zm5.71.29c-.23-.71-.65-1.19-1.24-1.19a.78.78,0,0,0-.78.83c0,.54.48.82,1,1,.9.37,1.51.8,1.51,1.63a1.8,1.8,0,0,1-2,1.66,2.41,2.41,0,0,1-1.38-.41,5.65,5.65,0,0,1-.19-1.42l.31-.06c.22.79.76,1.49,1.48,1.49a.84.84,0,0,0,.85-.84c0-.53-.35-.82-.95-1.09s-1.5-.73-1.5-1.66a1.65,1.65,0,0,1,1.82-1.55,2.79,2.79,0,0,1,1.07.2,9,9,0,0,1,.26,1.28Zm3.58,3.81a1.22,1.22,0,0,1-.5.16c-.76,0-1.18-.48-1.18-1.43v-3.49h-.83l0-.12.32-.35h.55v-.88l.78-.79.17,0v1.64H154a.34.34,0,0,1-.07.47h-1.28v3.08c0,1,.4,1.15.7,1.15a1.71,1.71,0,0,0,.74-.2l.11.31Z" transform="translate(-6.2 -84)"/><text class="cls-10" transform="translate(60.87 64.4)">s<tspan class="cls-11" x="4.5" y="0">e</tspan><tspan class="cls-12" x="9.6" y="0">m</tspan><tspan class="cls-11" x="19.39" y="0">e</tspan><tspan class="cls-13" x="24.49" y="0">st</tspan><tspan class="cls-14" x="32.44" y="0">er</tspan></text><text class="cls-15" transform="translate(175.22 50)"><tspan class="cls-16">C</tspan><tspan class="cls-17" x="8.15" y="0">o</tspan><tspan class="cls-14" x="14.14" y="0">m</tspan><tspan class="cls-18" x="23.96" y="0">m</tspan><tspan class="cls-14" x="33.76" y="0">e</tspan><tspan class="cls-19" x="38.86" y="0">n</tspan><tspan class="cls-14" x="45.37" y="0">ce</tspan><tspan class="cls-20" x="55.55" y="0">m</tspan><tspan x="65.33" y="0">e</tspan><tspan class="cls-21" x="70.43" y="0">n</tspan><tspan x="76.76" y="0">t </tspan><tspan class="cls-17" x="83.15" y="0">o</tspan><tspan x="89.13" y="0">f </tspan><tspan class="cls-20" x="95.41" y="0">s</tspan><tspan class="cls-22" x="99.77" y="0">t</tspan><tspan x="103.32" y="0">udies ex</tspan><tspan class="cls-23" x="142.23" y="0">a</tspan><tspan x="147.39" y="0">m</tspan></text><text class="cls-15" transform="translate(401.53 50)">0</text><text class="cls-15" transform="translate(504.09 50)"><tspan class="cls-24">I</tspan><tspan class="cls-25" x="3.91" y="0">n</tspan><tspan class="cls-26" x="10.26" y="0">t</tspan><tspan x="13.85" y="0">e</tspan><tspan class="cls-27" x="18.95" y="0">r</tspan><tspan class="cls-18" x="23.47" y="0">n</tspan><tspan class="cls-28" x="30" y="0">a</tspan><tspan x="35.32" y="0">l</tspan></text><text class="cls-15" transform="translate(5.67 86.78)"><tspan class="cls-29">A</tspan><tspan x="7.8" y="0">t </tspan><tspan class="cls-30" x="14.18" y="0">t</tspan><tspan class="cls-19" x="17.92" y="0">h</tspan><tspan class="cls-14" x="24.28" y="0">e e</tspan><tspan class="cls-18" x="37.2" y="0">n</tspan><tspan x="43.73" y="0">d </tspan><tspan class="cls-31" x="52.79" y="0">o</tspan><tspan x="58.76" y="0">f </tspan><tspan class="cls-30" x="65.04" y="0">t</tspan><tspan class="cls-19" x="68.77" y="0">h</tspan><tspan class="cls-14" x="75.13" y="0">e </tspan><tspan class="cls-32" x="82.95" y="0">s</tspan><tspan class="cls-33" x="87.45" y="0">e</tspan><tspan x="92.6" y="0">c</tspan><tspan class="cls-31" x="97.68" y="0">o</tspan><tspan class="cls-18" x="103.65" y="0">n</tspan><tspan x="110.18" y="0">d </tspan><tspan class="cls-32" x="119.24" y="0">s</tspan><tspan class="cls-11" x="123.74" y="0">e</tspan><tspan class="cls-12" x="128.84" y="0">m</tspan><tspan class="cls-11" x="138.63" y="0">es</tspan></text><text class="cls-15" transform="translate(153.78 86.78)">-</text><text class="cls-15" transform="translate(75.29 101.18)"><tspan class="cls-34">t</tspan><tspan x="3.6" y="0">er</tspan></text><text class="cls-15" transform="translate(216.37 86.78)">Fi<tspan class="cls-34" x="9.56" y="0">r</tspan><tspan class="cls-20" x="13.96" y="0">s</tspan><tspan class="cls-11" x="18.31" y="0">t-</tspan><tspan class="cls-35" x="26.24" y="0">y</tspan><tspan class="cls-30" x="31.66" y="0">e</tspan><tspan class="cls-36" x="36.83" y="0">a</tspan><tspan class="cls-14" x="41.99" y="0">r ex</tspan><tspan class="cls-22" x="59.93" y="0">a</tspan><tspan x="65.09" y="0">m</tspan></text><text class="cls-15" transform="translate(179.03 101.18)">(<tspan class="cls-37" x="4.15" y="0">M</tspan><tspan class="cls-38" x="14.46" y="0">u</tspan><tspan class="cls-17" x="20.89" y="0">l</tspan><tspan class="cls-33" x="23.8" y="0">t</tspan><tspan x="27.5" y="0">i</tspan><tspan class="cls-20" x="30.72" y="0">m</tspan><tspan class="cls-39" x="40.5" y="0">e</tspan><tspan x="45.66" y="0">d</tspan><tspan class="cls-40" x="52" y="0">i</tspan><tspan class="cls-11" x="55.25" y="0">a </tspan><tspan class="cls-41" x="63.24" y="0">P</tspan><tspan class="cls-42" x="69.9" y="0">r</tspan><tspan class="cls-43" x="74.21" y="0">o</tspan><tspan class="cls-17" x="80.43" y="0">d</tspan><tspan x="86.64" y="0">u</tspan><tspan class="cls-27" x="93.01" y="0">c</tspan><tspan class="cls-33" x="98.16" y="0">t</tspan><tspan x="101.87" y="0">i</tspan><tspan class="cls-44" x="105.08" y="0">o</tspan><tspan class="cls-45" x="111.06" y="0">n </tspan><tspan class="cls-46" x="120.35" y="0">B</tspan><tspan class="cls-47" x="127.51" y="0">a</tspan><tspan class="cls-48" x="132.75" y="0">sic)</tspan></text><text class="cls-15" transform="translate(398.66 86.78)">60</text><text class="cls-15" transform="translate(502.95 86.78)"><tspan class="cls-28">E</tspan><tspan class="cls-48" x="6.86" y="0">x</tspan><tspan class="cls-26" x="12.53" y="0">t</tspan><tspan class="cls-45" x="16.12" y="0">e</tspan><tspan class="cls-38" x="21.22" y="0">r</tspan><tspan class="cls-47" x="25.73" y="0">n</tspan><tspan class="cls-33" x="32.27" y="0">a</tspan><tspan x="37.58" y="0">l</tspan></text><text class="cls-15" transform="translate(10.71 132.31)"><tspan class="cls-29">A</tspan><tspan x="7.8" y="0">t </tspan><tspan class="cls-30" x="14.18" y="0">t</tspan><tspan class="cls-19" x="17.92" y="0">h</tspan><tspan class="cls-14" x="24.28" y="0">e e</tspan><tspan class="cls-18" x="37.2" y="0">n</tspan><tspan x="43.73" y="0">d </tspan><tspan class="cls-31" x="52.79" y="0">o</tspan><tspan x="58.76" y="0">f </tspan><tspan class="cls-30" x="65.04" y="0">t</tspan><tspan class="cls-19" x="68.77" y="0">h</tspan><tspan class="cls-14" x="75.13" y="0">e </tspan><tspan class="cls-12" x="82.95" y="0">e</tspan><tspan x="88.02" y="0">l</tspan><tspan class="cls-49" x="91.05" y="0">e</tspan><tspan class="cls-50" x="96.2" y="0">c</tspan><tspan class="cls-49" x="101.36" y="0">t</tspan><tspan class="cls-26" x="105.07" y="0">i</tspan><tspan class="cls-41" x="108.21" y="0">v</tspan><tspan x="113.67" y="0">e </tspan><tspan class="cls-51" x="121.5" y="0">p</tspan><tspan class="cls-31" x="127.65" y="0">r</tspan><tspan x="131.96" y="0">o</tspan></text><text class="cls-15" transform="translate(148.76 132.31)">-</text><text class="cls-15" transform="translate(12.91 146.71)"><tspan class="cls-39">g</tspan><tspan class="cls-14" x="5.68" y="0">r</tspan><tspan class="cls-41" x="10.13" y="0">a</tspan><tspan x="15.3" y="0">m</tspan><tspan class="cls-20" x="25.13" y="0">m</tspan><tspan x="34.91" y="0">e </tspan><tspan class="cls-12" x="42.73" y="0">e</tspan><tspan class="cls-11" x="47.79" y="0">le</tspan><tspan class="cls-12" x="55.93" y="0">m</tspan><tspan class="cls-11" x="65.72" y="0">e</tspan><tspan class="cls-52" x="70.82" y="0">n</tspan><tspan x="77.17" y="0">t in </tspan><tspan class="cls-39" x="96.06" y="0">t</tspan><tspan class="cls-19" x="99.78" y="0">h</tspan><tspan x="106.14" y="0">e </tspan><tspan class="cls-30" x="113.96" y="0">t</tspan><tspan class="cls-11" x="117.69" y="0">hi</tspan><tspan class="cls-42" x="127.32" y="0">r</tspan><tspan x="131.63" y="0">d</tspan></text><text class="cls-10" transform="translate(60.88 161.11)">s<tspan class="cls-11" x="4.5" y="0">e</tspan><tspan class="cls-12" x="9.6" y="0">m</tspan><tspan class="cls-11" x="19.39" y="0">e</tspan><tspan class="cls-13" x="24.49" y="0">st</tspan><tspan class="cls-14" x="32.44" y="0">er</tspan></text><text class="cls-15" transform="translate(184.95 132.31)"><tspan class="cls-30">E</tspan><tspan class="cls-14" x="6.89" y="0">l</tspan><tspan class="cls-39" x="9.92" y="0">e</tspan><tspan class="cls-27" x="15.08" y="0">c</tspan><tspan class="cls-49" x="20.23" y="0">t</tspan><tspan class="cls-53" x="23.94" y="0">i</tspan><tspan class="cls-54" x="27.08" y="0">v</tspan><tspan x="32.56" y="0">e </tspan><tspan class="cls-17" x="40.38" y="0">p</tspan><tspan class="cls-42" x="46.53" y="0">r</tspan><tspan class="cls-11" x="50.84" y="0">o</tspan><tspan class="cls-55" x="56.96" y="0">g</tspan><tspan x="62.64" y="0">r</tspan><tspan class="cls-22" x="67.09" y="0">a</tspan><tspan x="72.25" y="0">m</tspan><tspan class="cls-20" x="82.08" y="0">m</tspan><tspan class="cls-14" x="91.86" y="0">e </tspan><tspan class="cls-18" x="99.68" y="0">e</tspan><tspan x="104.75" y="0">le</tspan><tspan class="cls-18" x="112.88" y="0">m</tspan><tspan x="122.67" y="0">e</tspan><tspan class="cls-56" x="127.77" y="0">n</tspan><tspan x="134.11" y="0">t</tspan></text><text class="cls-15" transform="translate(398.65 132.31)">10</text><text class="cls-15" transform="translate(504.09 132.31)"><tspan class="cls-24">I</tspan><tspan class="cls-25" x="3.91" y="0">n</tspan><tspan class="cls-26" x="10.26" y="0">t</tspan><tspan x="13.85" y="0">e</tspan><tspan class="cls-27" x="18.95" y="0">r</tspan><tspan class="cls-18" x="23.47" y="0">n</tspan><tspan class="cls-28" x="30" y="0">a</tspan><tspan x="35.32" y="0">l</tspan></text><text class="cls-15" transform="translate(6.05 192.23)"><tspan class="cls-29">A</tspan><tspan class="cls-14" x="7.8" y="0">t </tspan><tspan class="cls-30" x="14.18" y="0">t</tspan><tspan class="cls-19" x="17.92" y="0">h</tspan><tspan class="cls-14" x="24.28" y="0">e e</tspan><tspan class="cls-20" x="37.2" y="0">n</tspan><tspan x="43.72" y="0">d </tspan><tspan class="cls-31" x="52.77" y="0">o</tspan><tspan x="58.75" y="0">f </tspan><tspan class="cls-30" x="65.03" y="0">t</tspan><tspan class="cls-19" x="68.76" y="0">h</tspan><tspan x="75.12" y="0">e </tspan><tspan class="cls-38" x="82.94" y="0">t</tspan><tspan x="86.66" y="0">hi</tspan><tspan class="cls-31" x="96.29" y="0">r</tspan><tspan x="100.59" y="0">d </tspan><tspan class="cls-50" x="109.65" y="0">s</tspan><tspan x="114.14" y="0">e</tspan><tspan class="cls-18" x="119.24" y="0">m</tspan><tspan x="129.03" y="0">e</tspan><tspan class="cls-20" x="134.13" y="0">s</tspan><tspan class="cls-34" x="138.49" y="0">t</tspan><tspan class="cls-14" x="142.09" y="0">er</tspan></text><path d="M219.38,276.24v-.31c.71-.07.79-.16.79-.95v-2c0-1-.37-1.49-1.19-1.48a1.62,1.62,0,0,0-1.24.62V275c0,.78.06.88.78.95v.31H216v-.31c.76-.07.84-.16.84-.95v-6c-.66-.06-1.28-.07-2.35-.07h-.84v5.85c0,1,.1,1.12,1.19,1.19v.32h-3.37v-.32c1.06-.07,1.16-.17,1.16-1.19v-5.85h-.76c-1.07,0-1.28.11-1.46.38a3.36,3.36,0,0,0-.38,1h-.35c0-.7.12-1.5.14-2.16H210c.17.26.31.3.65.3h5c1,0,1.15-.07,1.15-.31V268a6.39,6.39,0,0,0,.95-.28v4a2.55,2.55,0,0,1,1.67-.86c1,0,1.7.61,1.7,2V275c0,.82.08.88.8.95v.31Zm3.16,0v-.31c.76-.07.84-.14.84-1v-2.47c0-.74,0-.79-.76-.91v-.29a7.56,7.56,0,0,0,1.7-.47V275c0,.82.08.89.85,1v.31Zm.64-7a.62.62,0,0,1,.61-.62.6.6,0,0,1,.6.62.61.61,0,0,1-.61.61A.63.63,0,0,1,223.18,269.19Zm4.39,2.93c.36-.6.88-1.27,1.45-1.27a.62.62,0,0,1,.31,1.19.28.28,0,0,1-.32,0,.64.64,0,0,0-.5-.25c-.31,0-.7.36-1,1V275c0,.79.06.86,1,.94v.31h-2.76v-.31c.74-.07.83-.14.83-.94v-2.48c0-.79-.06-.84-.74-.94v-.26a6.78,6.78,0,0,0,1.69-.49v1.31Zm8.3,3.8a12.42,12.42,0,0,0-1.86.46v-.78l-.73.43a2.11,2.11,0,0,1-.94.35,2.4,2.4,0,0,1-2.22-2.55,3.07,3.07,0,0,1,3.09-3,2.77,2.77,0,0,1,.79.13v-1.69c0-.79-.06-.83-.92-.89v-.29a11.17,11.17,0,0,0,1.87-.42v7.16c0,.62.08.68.53.73l.38,0Zm-1.86-4a1.49,1.49,0,0,0-1.24-.61c-.55,0-1.56.47-1.56,2.21,0,1.43.88,2.12,1.64,2.12a2,2,0,0,0,1.15-.41Zm5.41,2h-2.73l.17-.66h2.75Zm4.38-1.45c-.23-.71-.65-1.19-1.24-1.19a.78.78,0,0,0-.78.83c0,.54.48.82,1,1,.9.37,1.51.8,1.51,1.63a1.8,1.8,0,0,1-2,1.66A2.41,2.41,0,0,1,241,276a5.65,5.65,0,0,1-.19-1.42l.31-.06c.22.79.76,1.49,1.48,1.49a.84.84,0,0,0,.85-.84c0-.53-.35-.82-.95-1.09s-1.5-.73-1.5-1.66a1.65,1.65,0,0,1,1.82-1.55,2.79,2.79,0,0,1,1.07.2,9,9,0,0,1,.26,1.28Zm5.71,2.81a2.72,2.72,0,0,1-2,1.16,2.37,2.37,0,0,1-2.34-2.55,3.09,3.09,0,0,1,.79-2.1,2.44,2.44,0,0,1,1.76-.88,1.86,1.86,0,0,1,1.8,1.82c0,.24-.06.34-.28.38s-1.7.16-3.13.2c0,1.63.95,2.3,1.79,2.3a2,2,0,0,0,1.37-.6Zm-3.29-2.45c.67,0,1.33,0,2,0,.22,0,.29-.07.29-.24a1.1,1.1,0,0,0-1.06-1.2C246.94,271.29,246.41,271.8,246.23,272.77Zm10.64,3.47v-.31c.71-.07.84-.12.84-1v-2c0-.85-.3-1.39-1.06-1.39a2.21,2.21,0,0,0-1.34.62,2.81,2.81,0,0,1,0,.5V275c0,.76.11.83.77.9v.31h-2.57v-.31c.74-.07.85-.13.85-.92v-2.06c0-.89-.31-1.38-1-1.38a2.23,2.23,0,0,0-1.31.62V275c0,.78.1.85.68.92v.31H250.2v-.31c.79-.07.9-.14.9-.92v-2.48c0-.77,0-.83-.73-.94v-.28a7.32,7.32,0,0,0,1.67-.49v1c.25-.17.52-.38.88-.61a1.78,1.78,0,0,1,1-.32,1.43,1.43,0,0,1,1.33,1,11.24,11.24,0,0,1,1-.67,1.66,1.66,0,0,1,.9-.31c.94,0,1.52.66,1.52,1.83V275c0,.8.1.85.78.92v.31Zm7.52-1a2.72,2.72,0,0,1-2,1.16,2.37,2.37,0,0,1-2.34-2.55,3.09,3.09,0,0,1,.79-2.1,2.44,2.44,0,0,1,1.76-.88,1.86,1.86,0,0,1,1.8,1.82c0,.24-.06.34-.28.38s-1.7.16-3.13.2c0,1.63.95,2.3,1.79,2.3a2,2,0,0,0,1.37-.6Zm-3.29-2.45c.67,0,1.33,0,2,0,.22,0,.29-.07.29-.24a1.1,1.1,0,0,0-1.06-1.2C261.82,271.29,261.29,271.8,261.11,272.77Zm7.17-.36c-.23-.71-.65-1.19-1.24-1.19a.78.78,0,0,0-.78.83c0,.54.48.82,1,1,.9.37,1.51.8,1.51,1.63a1.8,1.8,0,0,1-2,1.66,2.41,2.41,0,0,1-1.38-.41,5.65,5.65,0,0,1-.19-1.42l.31-.06c.22.79.76,1.49,1.48,1.49a.84.84,0,0,0,.85-.84c0-.53-.35-.82-.95-1.09s-1.5-.73-1.5-1.66a1.65,1.65,0,0,1,1.82-1.55,2.79,2.79,0,0,1,1.07.2,9,9,0,0,1,.26,1.28Zm3.58,3.81a1.22,1.22,0,0,1-.5.16c-.76,0-1.18-.48-1.18-1.43v-3.49h-.83l0-.12.32-.35h.55v-.88l.78-.79.17,0V271h1.36a.34.34,0,0,1-.07.47h-1.28v3.08c0,1,.4,1.15.7,1.15a1.72,1.72,0,0,0,.74-.2l.11.31Zm5.57-1a2.72,2.72,0,0,1-2,1.16,2.37,2.37,0,0,1-2.34-2.55,3.09,3.09,0,0,1,.79-2.1,2.44,2.44,0,0,1,1.76-.88,1.86,1.86,0,0,1,1.8,1.82c0,.24-.06.34-.28.38s-1.7.16-3.13.2c0,1.63.95,2.3,1.79,2.3a2,2,0,0,0,1.37-.6Zm-3.29-2.45c.67,0,1.33,0,2,0,.22,0,.29-.07.29-.24a1.1,1.1,0,0,0-1.06-1.2C274.85,271.29,274.32,271.8,274.14,272.77Zm5.84-.65c.36-.6.88-1.27,1.45-1.27a.62.62,0,0,1,.31,1.19.28.28,0,0,1-.32,0,.64.64,0,0,0-.5-.25c-.31,0-.7.36-1,1V275c0,.79.06.86,1,.94v.31h-2.76v-.31c.74-.07.83-.14.83-.94v-2.48c0-.79-.06-.84-.74-.94v-.26a6.78,6.78,0,0,0,1.69-.49v1.31Zm9.72,3.09a2.72,2.72,0,0,1-2,1.16,2.37,2.37,0,0,1-2.34-2.55,3.09,3.09,0,0,1,.79-2.1,2.44,2.44,0,0,1,1.76-.88,1.86,1.86,0,0,1,1.8,1.82c0,.24-.06.34-.28.38s-1.7.16-3.13.2c0,1.63.95,2.3,1.79,2.3a2,2,0,0,0,1.37-.6Zm-3.29-2.45c.67,0,1.33,0,2,0,.22,0,.29-.07.29-.24a1.1,1.1,0,0,0-1.06-1.2C287.12,271.29,286.6,271.8,286.42,272.77Zm6.77,3.47v-.31c.52-.06.61-.16.41-.48l-.89-1.4c-.26.4-.54.84-.77,1.27s-.2.52.42.61v.31h-2.24v-.31a1.55,1.55,0,0,0,1.36-.79,17.44,17.44,0,0,0,1-1.44l-1-1.63a1.23,1.23,0,0,0-1.18-.77V271h2.4v.3c-.52.07-.55.18-.34.52l.71,1.1a12.6,12.6,0,0,0,.7-1.12c.22-.38.13-.44-.38-.5V271h2.18v.3a1.51,1.51,0,0,0-1.32.65c-.24.3-.54.73-.94,1.32l1.18,1.78c.44.68.59.79,1.32.89v.31Zm6.72.14a1,1,0,0,1-.56-.23,1.25,1.25,0,0,1-.29-.54,3.79,3.79,0,0,1-1.42.77,1.45,1.45,0,0,1-1.44-1.46,1.2,1.2,0,0,1,1-1.19,8.59,8.59,0,0,0,1.86-.78v-.22c0-.86-.41-1.36-1-1.36a.68.68,0,0,0-.54.24,1.74,1.74,0,0,0-.36.79.33.33,0,0,1-.35.28.59.59,0,0,1-.53-.52c0-.18.16-.31.38-.48a5.36,5.36,0,0,1,1.8-.84,1.56,1.56,0,0,1,1,.32,1.74,1.74,0,0,1,.54,1.46v2.23c0,.54.22.72.42.72a.91.91,0,0,0,.43-.13l.12.31Zm-.88-3c-.25.13-.83.38-1.08.5-.47.22-.73.44-.73.88a.88.88,0,0,0,.85.92,1.72,1.72,0,0,0,1-.43Zm8.85,2.88v-.31c.71-.07.84-.12.84-1v-2c0-.85-.3-1.39-1.06-1.39a2.21,2.21,0,0,0-1.34.62,2.81,2.81,0,0,1,0,.5V275c0,.76.11.83.77.9v.31h-2.57v-.31c.74-.07.85-.13.85-.92v-2.06c0-.89-.31-1.38-1-1.38a2.23,2.23,0,0,0-1.31.62V275c0,.78.1.85.68.92v.31h-2.53v-.31c.79-.07.9-.14.9-.92v-2.48c0-.77,0-.83-.73-.94v-.28a7.32,7.32,0,0,0,1.67-.49v1c.25-.17.52-.38.88-.61a1.78,1.78,0,0,1,1-.32,1.43,1.43,0,0,1,1.33,1,11.24,11.24,0,0,1,1-.67,1.66,1.66,0,0,1,.9-.31c.94,0,1.52.66,1.52,1.83V275c0,.8.1.85.78.92v.31Z" transform="translate(-6.2 -84)"/><text class="cls-15" transform="translate(167.56 206.63)">(<tspan class="cls-37" x="4.15" y="0">M</tspan><tspan class="cls-38" x="14.46" y="0">u</tspan><tspan class="cls-51" x="20.89" y="0">l</tspan><tspan class="cls-33" x="23.8" y="0">t</tspan><tspan x="27.5" y="0">i</tspan><tspan class="cls-20" x="30.72" y="0">m</tspan><tspan class="cls-39" x="40.5" y="0">e</tspan><tspan x="45.66" y="0">d</tspan><tspan class="cls-40" x="52" y="0">i</tspan><tspan class="cls-11" x="55.25" y="0">a </tspan><tspan class="cls-41" x="63.24" y="0">P</tspan><tspan class="cls-42" x="69.9" y="0">r</tspan><tspan class="cls-43" x="74.21" y="0">o</tspan><tspan class="cls-17" x="80.43" y="0">d</tspan><tspan x="86.64" y="0">u</tspan><tspan class="cls-27" x="93.01" y="0">c</tspan><tspan class="cls-33" x="98.16" y="0">t</tspan><tspan x="101.87" y="0">i</tspan><tspan class="cls-31" x="105.08" y="0">o</tspan><tspan x="111.06" y="0">n </tspan><tspan class="cls-57" x="120.35" y="0">A</tspan><tspan class="cls-26" x="128.33" y="0">d</tspan><tspan class="cls-45" x="134.59" y="0">v</tspan><tspan class="cls-36" x="140.15" y="0">a</tspan><tspan class="cls-58" x="145.31" y="0">n</tspan><tspan class="cls-48" x="151.82" y="0">c</tspan><tspan class="cls-55" x="156.9" y="0">e</tspan><tspan x="162.06" y="0">d)</tspan></text><text class="cls-15" transform="translate(398.66 192.23)">20</text><text class="cls-15" transform="translate(504.1 192.23)"><tspan class="cls-24">I</tspan><tspan class="cls-25" x="3.91" y="0">n</tspan><tspan class="cls-26" x="10.26" y="0">t</tspan><tspan x="13.85" y="0">e</tspan><tspan class="cls-27" x="18.95" y="0">r</tspan><tspan class="cls-18" x="23.47" y="0">n</tspan><tspan class="cls-28" x="30" y="0">a</tspan><tspan x="35.32" y="0">l</tspan></text><text class="cls-15" transform="translate(15.73 237.76)"><tspan class="cls-29">A</tspan><tspan class="cls-14" x="7.8" y="0">t </tspan><tspan class="cls-30" x="14.18" y="0">t</tspan><tspan class="cls-19" x="17.92" y="0">h</tspan><tspan class="cls-14" x="24.28" y="0">e e</tspan><tspan class="cls-20" x="37.2" y="0">n</tspan><tspan x="43.72" y="0">d </tspan><tspan class="cls-31" x="52.77" y="0">o</tspan><tspan x="58.75" y="0">f </tspan><tspan class="cls-30" x="65.03" y="0">t</tspan><tspan class="cls-19" x="68.76" y="0">h</tspan><tspan x="75.12" y="0">e i</tspan><tspan class="cls-52" x="86.16" y="0">n</tspan><tspan class="cls-34" x="92.51" y="0">t</tspan><tspan class="cls-14" x="96.11" y="0">e</tspan><tspan class="cls-39" x="101.21" y="0">r</tspan><tspan class="cls-41" x="105.72" y="0">n</tspan><tspan class="cls-12" x="112.19" y="0">s</tspan><tspan x="116.55" y="0">h</tspan><tspan class="cls-51" x="122.96" y="0">i</tspan><tspan x="126.05" y="0">p</tspan></text><text class="cls-15" transform="translate(214.57 237.76)"><tspan class="cls-59">I</tspan><tspan class="cls-52" x="3.91" y="0">n</tspan><tspan class="cls-26" x="10.26" y="0">t</tspan><tspan class="cls-14" x="13.85" y="0">e</tspan><tspan class="cls-30" x="18.95" y="0">r</tspan><tspan class="cls-60" x="23.47" y="0">n</tspan><tspan class="cls-12" x="29.95" y="0">s</tspan><tspan x="34.32" y="0">h</tspan><tspan class="cls-51" x="40.73" y="0">i</tspan><tspan x="43.81" y="0">p ex</tspan><tspan class="cls-23" x="63.59" y="0">a</tspan><tspan x="68.75" y="0">m</tspan></text><text class="cls-15" transform="translate(398.66 237.76)">15</text><text class="cls-15" transform="translate(504.1 237.76)"><tspan class="cls-24">I</tspan><tspan class="cls-25" x="3.91" y="0">n</tspan><tspan class="cls-26" x="10.26" y="0">t</tspan><tspan x="13.85" y="0">e</tspan><tspan class="cls-27" x="18.95" y="0">r</tspan><tspan class="cls-18" x="23.47" y="0">n</tspan><tspan class="cls-28" x="30" y="0">a</tspan><tspan x="35.32" y="0">l</tspan></text><text class="cls-15" transform="translate(7.21 274.54)"><tspan class="cls-29">A</tspan><tspan x="7.8" y="0">t </tspan><tspan class="cls-30" x="14.18" y="0">t</tspan><tspan class="cls-19" x="17.92" y="0">h</tspan><tspan class="cls-14" x="24.28" y="0">e e</tspan><tspan class="cls-20" x="37.2" y="0">n</tspan><tspan x="43.72" y="0">d </tspan><tspan class="cls-31" x="52.77" y="0">o</tspan><tspan x="58.75" y="0">f </tspan><tspan class="cls-30" x="65.03" y="0">t</tspan><tspan class="cls-19" x="68.76" y="0">h</tspan><tspan x="75.12" y="0">e </tspan><tspan class="cls-41" x="82.94" y="0">f</tspan><tspan class="cls-61" x="86.4" y="0">o</tspan><tspan x="92.4" y="0">u</tspan><tspan class="cls-62" x="98.77" y="0">r</tspan><tspan class="cls-39" x="103.34" y="0">t</tspan><tspan x="107.06" y="0">h </tspan><tspan class="cls-63" x="116.19" y="0">s</tspan><tspan class="cls-11" x="120.68" y="0">e</tspan><tspan class="cls-12" x="125.78" y="0">m</tspan><tspan class="cls-11" x="135.57" y="0">es</tspan></text><text class="cls-15" transform="translate(152.27 274.54)">-</text><text class="cls-15" transform="translate(75.31 288.94)"><tspan class="cls-13">t</tspan><tspan x="3.6" y="0">er</tspan></text><text class="cls-15" transform="translate(209.23 274.54)">Fi<tspan class="cls-64" x="9.56" y="0">n</tspan><tspan class="cls-49" x="16.1" y="0">a</tspan><tspan class="cls-11" x="21.42" y="0">l ex</tspan><tspan class="cls-36" x="37.94" y="0">a</tspan><tspan x="43.1" y="0">m </tspan><tspan class="cls-17" x="55.65" y="0">p</tspan><tspan class="cls-42" x="61.81" y="0">r</tspan><tspan class="cls-65" x="66.12" y="0">o</tspan><tspan class="cls-28" x="72.12" y="0">j</tspan><tspan class="cls-38" x="75.24" y="0">e</tspan><tspan class="cls-50" x="80.4" y="0">c</tspan><tspan x="85.56" y="0">t</tspan></text><text class="cls-15" transform="translate(398.66 274.54)">15</text><text class="cls-15" transform="translate(502.95 274.54)"><tspan class="cls-28">E</tspan><tspan class="cls-48" x="6.86" y="0">x</tspan><tspan class="cls-26" x="12.53" y="0">t</tspan><tspan class="cls-45" x="16.12" y="0">e</tspan><tspan class="cls-38" x="21.22" y="0">r</tspan><tspan class="cls-47" x="25.73" y="0">n</tspan><tspan class="cls-33" x="32.27" y="0">a</tspan><tspan x="37.58" y="0">l</tspan></text></svg>